<svg width="98" height="28" viewBox="0 0 98 28" fill="none" xmlns="http://www.w3.org/2000/svg">
<path d="M43.7548 8.6265C45.8115 8.6265 47.759 9.88462 48.17 12.603H39.0109C39.3942 10.2176 41.1774 8.6265 43.7548 8.6265ZM47.8773 16.6248C47.1778 17.7152 45.8257 18.5539 43.9746 18.5539C41.4239 18.5539 39.4764 17.1557 39.0109 14.6873H50.5017C50.5572 14.3335 50.5852 13.976 50.5856 13.6179C50.5856 9.77894 47.9016 6.37781 43.7565 6.37781C39.4789 6.37781 36.5718 9.53151 36.5718 13.5911C36.5718 17.7009 39.5074 20.8043 43.9209 20.8043C46.6636 20.8043 48.7479 19.5697 49.954 17.7009L47.8773 16.6248Z" fill="#006BFF"/>
<path d="M35.443 0.42688H33.0576V20.447H35.443V0.42688Z" fill="#006BFF"/>
<path d="M63.8588 12.0277V20.4462H61.4725V12.1644C61.4725 9.91569 60.1842 8.65421 58.0722 8.65421C55.8781 8.65421 54.0957 9.94337 54.0957 13.1793V20.4462H51.7095V6.73599H54.0957V8.7104C55.1106 7.09245 56.6187 6.37952 58.5411 6.37952C61.7493 6.37952 63.8613 8.51833 63.8613 12.0293" fill="#006BFF"/>
<path d="M77.0147 13.5902C77.0147 10.793 74.9027 8.68102 72.1332 8.68102C69.3905 8.68102 67.2793 10.793 67.2793 13.5902C67.2793 16.3875 69.3905 18.4994 72.1332 18.4994C74.901 18.4994 77.0147 16.3875 77.0147 13.5902ZM79.4001 0.42688V20.447H77.0147V18.0876C75.9176 19.7651 74.1629 20.8035 71.8312 20.8035C68.0191 20.8035 64.8931 17.6489 64.8931 13.5902C64.8931 9.53151 68.0191 6.37697 71.8312 6.37697C74.1621 6.37697 75.9176 7.4187 77.0147 9.09201V0.42688H79.4001Z" fill="#006BFF"/>
<path d="M83.7096 0.42688H81.3242V20.447H83.7096V0.42688Z" fill="#006BFF"/>
<path d="M28.8047 13.5902C28.8047 10.793 26.6936 8.681 23.9232 8.681C21.1813 8.681 19.0694 10.793 19.0694 13.5902C19.0694 16.3874 21.1813 18.4994 23.9232 18.4994C26.6911 18.4994 28.8047 16.3874 28.8047 13.5902ZM31.191 6.73594V20.4461H28.8047V18.0876C27.7076 19.7651 25.953 20.8035 23.6221 20.8035C19.81 20.8035 16.6831 17.6489 16.6831 13.5902C16.6831 9.53149 19.81 6.37695 23.6221 6.37695C25.953 6.37695 27.7076 7.41868 28.8047 9.09199V6.73594H31.191Z" fill="#006BFF"/>
<path d="M13.1446 17.8075C11.9233 18.2581 10.605 18.3798 9.32187 18.1603C8.03871 17.9408 6.83582 17.3878 5.83379 16.5567C4.83176 15.7257 4.06582 14.6458 3.61276 13.4254C3.1597 12.205 3.03545 10.8869 3.25246 9.60335C3.46947 8.31977 4.02012 7.11579 4.84919 6.11214C5.67826 5.10849 6.75662 4.34044 7.97615 3.88499C9.19568 3.42955 10.5135 3.30271 11.7975 3.51721C13.0815 3.73171 14.2866 4.28001 15.2918 5.10711C15.711 5.45298 16.0903 5.84459 16.4225 6.27465L18.4866 4.7649C17.2841 3.19283 15.6419 2.01316 13.7681 1.37544C11.8944 0.737719 9.87353 0.670647 7.96163 1.18273C6.04974 1.69481 4.33292 2.76299 3.02877 4.25187C1.72463 5.74075 0.891884 7.58331 0.636081 9.54599C0.380279 11.5087 0.71294 13.5031 1.5919 15.2765C2.47086 17.0499 3.85654 18.5225 5.57331 19.5075C7.29008 20.4925 9.26065 20.9457 11.2352 20.8095C13.2098 20.6733 15.0996 19.954 16.6649 18.7427L15.291 16.5703C14.6492 17.099 13.9238 17.5171 13.1446 17.8075Z" fill="#006BFF"/>
<path d="M95.2256 6.73596V14.5179C95.2256 17.0341 93.762 18.6278 91.5275 18.6278C89.2931 18.6278 87.6752 17.0341 87.6752 14.5179V6.73596H85.2612V14.2847C85.2612 18.2403 87.7263 20.8085 91.5275 20.8085C94.8154 20.8085 95.3287 18.7284 95.3287 18.6764V21.4762C95.3287 24.2499 94.1218 25.8167 91.6047 25.8167C90.7056 25.8211 89.8355 25.4986 89.1566 24.9091C88.4776 24.3197 88.0361 23.5035 87.9142 22.6127L85.7561 23.3675C86.065 24.6873 86.8116 25.8636 87.8744 26.7047C88.9372 27.5459 90.2535 28.0025 91.6089 28C95.5124 28 97.6479 25.4309 97.6479 21.4762V6.73596H95.2256Z" fill="#006BFF"/>
</svg>
