<svg width="32" height="32" viewBox="0 0 32 32" fill="none" xmlns="http://www.w3.org/2000/svg">
  <path d="M31.67 9.179c-.374-1.42-1.479-2.525-2.899-2.899C26.5 5.5 16 5.5 16 5.5s-10.5 0-12.771.78c-1.42.374-2.525 1.479-2.899 2.899C0 11.451 0 16 0 16s0 4.549.33 6.821c.374 1.42 1.479 2.525 2.899 2.899C5.5 26.5 16 26.5 16 26.5s10.5 0 12.771-.78c1.42-.374 2.525-1.479 2.899-2.899C32 20.549 32 16 32 16s0-4.549-.33-6.821z" fill="#FF0000"/>
  <path d="M12.727 20.727l8.484-4.727-8.484-4.727v9.454z" fill="white"/>
</svg> 